<svg width="20" height="20" viewBox="0 0 20 20" fill="none" xmlns="http://www.w3.org/2000/svg">
<path d="M11.6224 16.5659C11.4576 16.8501 11.221 17.0859 10.9363 17.2499C10.6517 17.4139 10.3289 17.5002 10.0004 17.5002C9.67191 17.5002 9.34917 17.4139 9.06451 17.2499C8.77985 17.0859 8.54325 16.8501 8.37842 16.5659" stroke="white" stroke-width="1.4" stroke-linecap="round" stroke-linejoin="round"/>
<path fill-rule="evenodd" clip-rule="evenodd" d="M16 4C16 5.10457 15.1046 6 14 6C12.8954 6 12 5.10457 12 4C12 2.89543 12.8954 2 14 2C15.1046 2 16 2.89543 16 4Z" fill="#9DD14D"/>
<path fill-rule="evenodd" clip-rule="evenodd" d="M15.6172 6.52721C15.6716 6.84335 15.6999 7.16839 15.6999 7.50005L15.6997 7.54104V8.12505C15.6997 9.37397 16.0358 10.5423 16.6219 11.5468C16.9063 12.0341 16.9583 12.6123 16.7959 13.1139C16.6302 13.6258 16.2275 14.0847 15.6084 14.2374C14.0958 14.6104 11.9475 15.0159 9.9999 15.0159C8.05231 15.0159 5.90379 14.6104 4.39114 14.2374C3.77201 14.0847 3.36931 13.6258 3.20361 13.1139C3.04124 12.6122 3.09316 12.0341 3.37755 11.5467C3.9637 10.5422 4.29974 9.37395 4.29974 8.12505L4.29974 8.12486L4.2999 7.50005L4.2999 7.49986C4.3 4.35193 6.85194 1.80005 9.9999 1.80005C10.5959 1.80005 11.1705 1.89152 11.7105 2.06119C11.4043 2.42248 11.182 2.85721 11.0738 3.33524C10.7306 3.24699 10.3707 3.20005 9.9999 3.20005C7.62508 3.20005 5.6999 5.12522 5.6999 7.50005V7.50023L5.69974 8.12505V8.12523C5.6997 9.62865 5.29443 11.0395 4.58674 12.2523C4.50588 12.3909 4.49426 12.5551 4.53557 12.6827C4.57356 12.8001 4.64177 12.8573 4.72629 12.8781C6.19224 13.2396 8.21558 13.6159 9.9999 13.6159C11.7842 13.6159 13.8074 13.2396 15.2732 12.8781C15.3577 12.8573 15.4259 12.8001 15.4639 12.6828C15.5052 12.5551 15.4936 12.3909 15.4128 12.2524C14.705 11.0395 14.2997 9.62855 14.2997 8.12505V7.54104V7.53541L14.2998 7.53541L14.2999 7.50005C14.2999 7.32681 14.2897 7.15596 14.2697 6.98808C14.7629 6.94411 15.2218 6.78079 15.6172 6.52721Z" fill="white"/>
</svg>
