<svg width="18" height="18" viewBox="0 0 18 18" fill="none" xmlns="http://www.w3.org/2000/svg">
<path d="M12.9434 10.9602V15.9602" stroke="#88BF32" stroke-width="1.4" stroke-linecap="round"/>
<path d="M15.4434 13.4602L10.4434 13.4602" stroke="#88BF32" stroke-width="1.4" stroke-linecap="round"/>
<path d="M10.5 2.50018V6.50018C10.5 7.05247 10.9477 7.50018 11.5 7.50018H15.5C16.0523 7.50018 16.5 7.05247 16.5 6.50018V2.50018C16.5 1.9479 16.0523 1.50018 15.5 1.50018L11.5 1.50018C10.9477 1.50018 10.5 1.9479 10.5 2.50018Z" stroke="#88BF32" stroke-width="1.4" stroke-linecap="round" stroke-linejoin="round"/>
<path d="M1.5 2.5L1.5 6.5C1.5 7.05228 1.94772 7.5 2.5 7.5H6.5C7.05229 7.5 7.5 7.05228 7.5 6.5V2.5C7.5 1.94772 7.05228 1.5 6.5 1.5L2.5 1.5C1.94772 1.5 1.5 1.94772 1.5 2.5Z" stroke="#88BF32" stroke-width="1.4" stroke-linecap="round" stroke-linejoin="round"/>
<path d="M1.5 11.5001L1.5 15.5001C1.5 16.0524 1.94772 16.5001 2.5 16.5001H6.5C7.05228 16.5001 7.5 16.0524 7.5 15.5001V11.5001C7.5 10.9478 7.05228 10.5001 6.5 10.5001H2.5C1.94772 10.5001 1.5 10.9478 1.5 11.5001Z" stroke="#88BF32" stroke-width="1.4" stroke-linecap="round" stroke-linejoin="round"/>
</svg>
