<svg width="20" height="20" viewBox="0 0 20 20" fill="none" xmlns="http://www.w3.org/2000/svg">
<path d="M13.7874 12.7423C12.7302 11.4223 11.1048 10.5769 9.28203 10.5769C6.57683 10.5769 4.30651 12.4388 3.68262 14.951C3.49122 15.7218 3.97584 16.4716 4.7258 16.7328C6.15272 17.2299 7.68595 17.5 9.28228 17.5C9.89868 17.5 10.5057 17.4597 11.1008 17.3817M12.1666 5.38462C12.1666 6.97774 10.8752 8.26923 9.28203 8.26923C7.6889 8.26923 6.39741 6.97774 6.39741 5.38462C6.39741 3.79149 7.6889 2.5 9.28203 2.5C10.8752 2.5 12.1666 3.79149 12.1666 5.38462Z" stroke="white" stroke-width="1.4" stroke-linecap="round" stroke-linejoin="round"/>
<path d="M16.4864 14.0703L13.7875 16.645L12.4404 15.3577" stroke="white" stroke-width="1.4" stroke-linecap="round" stroke-linejoin="round"/>
</svg>
