<svg width="20" height="20" viewBox="0 0 20 20" fill="none" xmlns="http://www.w3.org/2000/svg">
<path d="M2.5 4.54545C2.5 3.41578 3.41578 2.5 4.54545 2.5H6.59091C7.72058 2.5 8.63636 3.41578 8.63636 4.54545V6.59091C8.63636 7.72058 7.72058 8.63636 6.59091 8.63636H4.54545C3.41578 8.63636 2.5 7.72058 2.5 6.59091V4.54545Z" stroke="white" stroke-width="1.4" stroke-linecap="round" stroke-linejoin="round"/>
<path d="M2.5 13.4091C2.5 12.2794 3.41578 11.3636 4.54545 11.3636H6.59091C7.72058 11.3636 8.63636 12.2794 8.63636 13.4091V15.4545C8.63636 16.5842 7.72058 17.5 6.59091 17.5H4.54545C3.41578 17.5 2.5 16.5842 2.5 15.4545V13.4091Z" stroke="white" stroke-width="1.4" stroke-linecap="round" stroke-linejoin="round"/>
<path d="M11.3636 4.54545C11.3636 3.41578 12.2794 2.5 13.4091 2.5H15.4545C16.5842 2.5 17.5 3.41578 17.5 4.54545V6.59091C17.5 7.72058 16.5842 8.63636 15.4545 8.63636H13.4091C12.2794 8.63636 11.3636 7.72058 11.3636 6.59091V4.54545Z" stroke="white" stroke-width="1.4" stroke-linecap="round" stroke-linejoin="round"/>
<path d="M11.3636 13.4091C11.3636 12.2794 12.2794 11.3636 13.4091 11.3636H15.4545C16.5842 11.3636 17.5 12.2794 17.5 13.4091V15.4545C17.5 16.5842 16.5842 17.5 15.4545 17.5H13.4091C12.2794 17.5 11.3636 16.5842 11.3636 15.4545V13.4091Z" stroke="white" stroke-width="1.4" stroke-linecap="round" stroke-linejoin="round"/>
</svg>
