<svg width="20" height="20" viewBox="0 0 20 20" fill="none" xmlns="http://www.w3.org/2000/svg">
<path d="M13.0766 14.3077V17.0769C13.0766 17.5867 12.6633 18 12.1535 18H4.15355C3.64374 18 3.23047 17.5867 3.23047 17.0769V6.61538C3.23047 6.10558 3.64374 5.69231 4.15355 5.69231H5.69201C6.11135 5.69231 6.52252 5.72726 6.92278 5.79441M13.0766 14.3077H15.8459C16.3557 14.3077 16.7689 13.8944 16.7689 13.3846V9.38462C16.7689 5.72554 14.1077 2.68805 10.6151 2.1021C10.2148 2.03495 9.80365 2 9.38432 2H7.84585C7.33605 2 6.92278 2.41328 6.92278 2.92308V5.79441M13.0766 14.3077H7.84585C7.33605 14.3077 6.92278 13.8944 6.92278 13.3846V5.79441M16.7689 11.2308V9.69231C16.7689 8.1629 15.5291 6.92308 13.9997 6.92308H12.7689C12.2591 6.92308 11.8459 6.5098 11.8459 6V4.76923C11.8459 3.23983 10.606 2 9.07662 2H8.15355" stroke="white" stroke-width="1.4" stroke-linecap="round" stroke-linejoin="round"/>
</svg>
