<svg width="20" height="20" viewBox="0 0 20 20" fill="none" xmlns="http://www.w3.org/2000/svg">
<path d="M9.11944 3.49651C9.19478 3.04446 9.5859 2.71313 10.0442 2.71313H10.9558C11.4141 2.71313 11.8052 3.04446 11.8806 3.49651L12.0047 4.24135C12.0636 4.59491 12.3244 4.87845 12.6554 5.0159C12.9866 5.1534 13.3669 5.13504 13.6587 4.92661L14.2734 4.48758C14.6463 4.22121 15.1571 4.26349 15.4812 4.58754L16.1258 5.23217C16.4499 5.55623 16.4921 6.06707 16.2258 6.43999L15.7866 7.05486C15.5782 7.34657 15.5598 7.72674 15.6973 8.05783C15.8347 8.38879 16.1182 8.6495 16.4716 8.70841L17.2166 8.83257C17.6687 8.90791 18 9.29903 18 9.75732V10.669C18 11.1272 17.6687 11.5184 17.2166 11.5937L16.4718 11.7178C16.1182 11.7768 15.8347 12.0375 15.6972 12.3686C15.5597 12.6997 15.5781 13.08 15.7865 13.3718L16.2255 13.9863C16.4919 14.3593 16.4496 14.8701 16.1255 15.1942L15.4809 15.8388C15.1568 16.1628 14.646 16.2051 14.2731 15.9387L13.6584 15.4997C13.3667 15.2913 12.9865 15.2729 12.6553 15.4104C12.3244 15.5478 12.0636 15.8313 12.0047 16.1848L11.8806 16.9298C11.8052 17.3818 11.4141 17.7131 10.9558 17.7131H10.0442C9.5859 17.7131 9.19478 17.3818 9.11944 16.9298L8.9953 16.1849C8.93637 15.8314 8.6756 15.5478 8.34457 15.4104C8.0134 15.2729 7.63312 15.2912 7.34133 15.4997L6.72665 15.9387C6.35373 16.2051 5.84288 16.1628 5.51883 15.8388L4.8742 15.1941C4.55014 14.8701 4.50787 14.3592 4.77424 13.9863L5.21343 13.3714C5.4218 13.0797 5.44017 12.6995 5.30271 12.3685C5.16531 12.0375 4.88183 11.7768 4.52835 11.7179L3.78338 11.5937C3.33132 11.5184 3 11.1272 3 10.669V9.75732C3 9.29903 3.33132 8.90791 3.78338 8.83257L4.52821 8.70843C4.88178 8.64951 5.16532 8.38873 5.30277 8.05769C5.44027 7.72651 5.42191 7.34622 5.21348 7.05442L4.77457 6.43994C4.50819 6.06701 4.55047 5.55617 4.87453 5.23211L5.51915 4.58749C5.84321 4.26343 6.35405 4.22115 6.72698 4.48753L7.34164 4.92657C7.63337 5.13495 8.01357 5.15332 8.34467 5.01585C8.67564 4.87844 8.93636 4.59496 8.99528 4.24147L9.11944 3.49651Z" stroke="white" stroke-width="1.4" stroke-linecap="round" stroke-linejoin="round"/>
<path d="M13.0006 10.2132C13.0006 11.5939 11.8813 12.7132 10.5006 12.7132C9.11987 12.7132 8.00058 11.5939 8.00058 10.2132C8.00058 8.83244 9.11987 7.71315 10.5006 7.71315C11.8813 7.71315 13.0006 8.83244 13.0006 10.2132Z" stroke="white" stroke-width="1.4" stroke-linecap="round" stroke-linejoin="round"/>
</svg>
